<?xml version="1.0" encoding="UTF-8" standalone="no"?>
<svg
   xmlns:dc="http://purl.org/dc/elements/1.1/"
   xmlns:cc="http://creativecommons.org/ns#"
   xmlns:rdf="http://www.w3.org/1999/02/22-rdf-syntax-ns#"
   xmlns:svg="http://www.w3.org/2000/svg"
   xmlns="http://www.w3.org/2000/svg"
   xmlns:xlink="http://www.w3.org/1999/xlink"
   xmlns:sodipodi="http://sodipodi.sourceforge.net/DTD/sodipodi-0.dtd"
   xmlns:inkscape="http://www.inkscape.org/namespaces/inkscape"
   viewBox="0 0 242.64 153"
   version="1.1"
   id="svg155"
   sodipodi:docname="front.svg"
   width="242.64"
   height="153"
   inkscape:version="0.92.3 (2405546, 2018-03-11)">
  <metadata
     id="metadata159">
    <rdf:RDF>
      <cc:Work
         rdf:about="">
        <dc:format>image/svg+xml</dc:format>
        <dc:type
           rdf:resource="http://purl.org/dc/dcmitype/StillImage" />
        <dc:title>Element 1</dc:title>
      </cc:Work>
    </rdf:RDF>
  </metadata>
  <sodipodi:namedview
     pagecolor="#ffffff"
     bordercolor="#666666"
     borderopacity="1"
     objecttolerance="10"
     gridtolerance="10"
     guidetolerance="10"
     inkscape:pageopacity="0"
     inkscape:pageshadow="2"
     inkscape:window-width="1920"
     inkscape:window-height="1027"
     id="namedview157"
     showgrid="false"
     inkscape:zoom="4.0799105"
     inkscape:cx="146.87647"
     inkscape:cy="39.826485"
     inkscape:window-x="-8"
     inkscape:window-y="-8"
     inkscape:window-maximized="1"
     inkscape:current-layer="svg155" />
  <defs
     id="defs45">
    <style
       id="style2">.cls-1{fill:url(#linear-gradient);}.cls-2{fill:#08b0a0;}.cls-3,.cls-7{fill:#fff;}.cls-4{fill:#a2c73b;}.cls-5{fill:url(#linear-gradient-2);}.cls-6{fill:url(#linear-gradient-3);}.cls-7{font-size:14px;stroke:#fff;stroke-width:0.25px;font-family:DINOT-Bold, DIN OT;font-weight:700;}.cls-8{letter-spacing:-0.05em;}.cls-9{letter-spacing:-0.01em;}.cls-10{letter-spacing:0em;}.cls-11{font-family:DINOT, DIN OT;font-weight:400;}.cls-12{letter-spacing:-0.06em;}.cls-13{letter-spacing:-0.02em;}.cls-14{letter-spacing:-0.01em;}.cls-15{fill:#1d1d1b;}.cls-16{fill:url(#linear-gradient-4);}.cls-17{fill:url(#linear-gradient-5);}.cls-18{fill:url(#linear-gradient-6);}.cls-19{fill:#e6007e;}.cls-20{fill:url(#linear-gradient-7);}</style>
    <linearGradient
       id="linear-gradient"
       y1="76.5"
       x2="242.64"
       y2="76.5"
       gradientUnits="userSpaceOnUse">
      <stop
         offset="0"
         stop-color="#a2c73b"
         id="stop4" />
      <stop
         offset="1"
         stop-color="#08b0a0"
         id="stop6" />
    </linearGradient>
    <linearGradient
       id="linear-gradient-2"
       x1="-16.700001"
       y1="97.919998"
       x2="104.46"
       y2="153.13"
       xlink:href="#linear-gradient" />
    <linearGradient
       id="linear-gradient-3"
       x1="160.61"
       y1="175.50999"
       x2="251.7"
       y2="105.87"
       xlink:href="#linear-gradient" />
    <linearGradient
       id="linear-gradient-4"
       x1="126.02"
       y1="19.48"
       x2="134.63"
       y2="29.75"
       gradientUnits="userSpaceOnUse">
      <stop
         offset="0.16"
         stop-color="#c0114c"
         id="stop11" />
      <stop
         offset="0.3"
         stop-color="#d00a61"
         id="stop13" />
      <stop
         offset="0.47"
         stop-color="#e00376"
         id="stop15" />
      <stop
         offset="0.59"
         stop-color="#e6007e"
         id="stop17" />
    </linearGradient>
    <linearGradient
       id="linear-gradient-5"
       x1="126.61"
       y1="24.280001"
       x2="126.61"
       y2="24.280001"
       gradientUnits="userSpaceOnUse">
      <stop
         offset="0.16"
         stop-color="#c0114c"
         id="stop20" />
      <stop
         offset="0.17"
         stop-color="#be124c"
         id="stop22" />
      <stop
         offset="0.3"
         stop-color="#aa184d"
         id="stop24" />
      <stop
         offset="0.44"
         stop-color="#9e1d4e"
         id="stop26" />
      <stop
         offset="0.57"
         stop-color="#9a1e4e"
         id="stop28" />
    </linearGradient>
    <linearGradient
       id="linear-gradient-6"
       x1="117.07"
       y1="27.559999"
       x2="139.78"
       y2="27.559999"
       xlink:href="#linear-gradient-5" />
    <linearGradient
       id="linear-gradient-7"
       x1="123.75"
       y1="27.389999"
       x2="129.16"
       y2="12.52"
       gradientUnits="userSpaceOnUse">
      <stop
         offset="0.22"
         stop-color="#e6007e"
         id="stop32" />
      <stop
         offset="0.32"
         stop-color="#e60b5e"
         id="stop34" />
      <stop
         offset="0.45"
         stop-color="#e5163d"
         id="stop36" />
      <stop
         offset="0.55"
         stop-color="#e51d28"
         id="stop38" />
      <stop
         offset="0.62"
         stop-color="#e51f21"
         id="stop40" />
      <stop
         offset="0.9"
         stop-color="#f7a823"
         id="stop42" />
    </linearGradient>
    <linearGradient
       inkscape:collect="always"
       xlink:href="#linear-gradient"
       id="linearGradient161"
       gradientUnits="userSpaceOnUse"
       y1="76.5"
       x2="242.64"
       y2="76.5" />
    <linearGradient
       inkscape:collect="always"
       xlink:href="#linear-gradient-5"
       id="linearGradient163"
       gradientUnits="userSpaceOnUse"
       x1="126.61"
       y1="24.280001"
       x2="126.61"
       y2="24.280001" />
  </defs>
  <title
     id="title47">Element 1</title>
  <g
     id="Kartenfarben">
    <path
       style="fill:url(#linearGradient161)"
       inkscape:connector-curvature="0"
       id="path49"
       d="m 9,0 h 224.64 a 9,9 0 0 1 9,9 v 135 a 9,9 0 0 1 -9,9 H 9 A 9,9 0 0 1 0,144 V 9 A 9,9 0 0 1 9,0 Z"
       class="cls-1" />
    <path
       style="fill:#08b0a0"
       inkscape:connector-curvature="0"
       id="path51"
       d="m 161.94,0 30.18,153 h 41.52 a 9,9 0 0 0 9,-9 V 9 a 9,9 0 0 0 -9,-9 z"
       class="cls-2" />
    <path
       style="fill:#ffffff"
       inkscape:connector-curvature="0"
       id="path53"
       d="M 9,0 A 9,9 0 0 0 0,9 V 43.26 L 242.64,62.34 V 9 a 9,9 0 0 0 -9,-9 z"
       class="cls-3" />
    <path
       style="fill:#a2c73b"
       inkscape:connector-curvature="0"
       id="path55"
       d="M 9,0 A 9,9 0 0 0 0,9 v 135 a 9,9 0 0 0 9,9 H 42.9 L 105.06,0 Z"
       class="cls-4" />
    <path
       style="fill:url(#linear-gradient-2)"
       inkscape:connector-curvature="0"
       id="path57"
       d="M 0,61.26 V 144 a 9,9 0 0 0 9,9 h 95.52 z"
       class="cls-5" />
    <path
       style="fill:url(#linear-gradient-3)"
       inkscape:connector-curvature="0"
       id="path59"
       d="m 242.64,94 -99.24,59 h 90.24 a 9,9 0 0 0 9,-9 z"
       class="cls-6" />
  </g>
  <g
     id="Logo">
    <polygon
       style="fill:#1d1d1b"
       id="polygon87"
       points="152.81,24.14 150.87,24.14 152.86,26.91 150.73,29.86 152.53,29.86 153.91,27.89 155.27,29.86 157.16,29.86 155.1,26.89 157.06,24.14 155.27,24.14 154.01,25.91 "
       class="cls-15" />
    <path
       style="fill:#1d1d1b"
       inkscape:connector-curvature="0"
       id="path89"
       d="m 163.89,25.57 a 2.31,2.31 0 0 0 -0.49,-0.89 1.91,1.91 0 0 0 -0.76,-0.53 2.78,2.78 0 0 0 -1,-0.17 2.23,2.23 0 0 0 -1.85,0.75 l -0.15,-0.59 h -2 v 1.4 h 0.83 v 6.53 h 1.62 v -2.22 a 2.47,2.47 0 0 0 0.45,0.11 5.06,5.06 0 0 0 0.68,0.05 3,3 0 0 0 1.2,-0.22 2.37,2.37 0 0 0 0.9,-0.63 2.86,2.86 0 0 0 0.56,-1 4.15,4.15 0 0 0 0.19,-1.31 4.41,4.41 0 0 0 -0.18,-1.28 z m -3.38,0 a 1.4,1.4 0 0 1 0.73,-0.2 1,1 0 0 1 0.82,0.37 1.57,1.57 0 0 1 0.33,1.07 2.78,2.78 0 0 1 -0.1,0.82 1.64,1.64 0 0 1 -0.29,0.56 1.15,1.15 0 0 1 -0.43,0.31 1.9,1.9 0 0 1 -1.11,0 1.25,1.25 0 0 1 -0.38,-0.15 v -2.2 a 1,1 0 0 1 0.43,-0.57 z"
       class="cls-15" />
    <path
       style="fill:#1d1d1b"
       inkscape:connector-curvature="0"
       id="path91"
       d="m 170.51,25.25 a 2.18,2.18 0 0 0 -0.64,-0.76 2.5,2.5 0 0 0 -0.86,-0.4 3.75,3.75 0 0 0 -2.09,0.08 2.64,2.64 0 0 0 -1,0.56 2.7,2.7 0 0 0 -0.66,0.95 3.34,3.34 0 0 0 -0.26,1.32 3.52,3.52 0 0 0 0.21,1.25 2.6,2.6 0 0 0 1.59,1.56 4.39,4.39 0 0 0 2.09,0.13 3.48,3.48 0 0 0 0.69,-0.18 3,3 0 0 0 0.54,-0.24 1.78,1.78 0 0 0 0.39,-0.28 v 0 l -0.51,-1.15 -0.09,0.07 a 2.28,2.28 0 0 1 -0.66,0.37 3.14,3.14 0 0 1 -1.06,0.15 2.82,2.82 0 0 1 -0.6,-0.07 1.47,1.47 0 0 1 -0.49,-0.22 1,1 0 0 1 -0.34,-0.37 1,1 0 0 1 -0.13,-0.46 h 4 v -0.07 a 5,5 0 0 0 0.12,-1 2.59,2.59 0 0 0 -0.24,-1.24 z m -2.93,0.14 a 1.77,1.77 0 0 1 0.52,-0.08 1.14,1.14 0 0 1 0.86,0.3 1.11,1.11 0 0 1 0.27,0.72 h -2.52 a 0.91,0.91 0 0 1 0.13,-0.37 1.17,1.17 0 0 1 0.31,-0.35 1.35,1.35 0 0 1 0.43,-0.22 z"
       class="cls-15" />
    <path
       style="fill:#1d1d1b"
       inkscape:connector-curvature="0"
       id="path93"
       d="m 150.35,25.25 a 2.18,2.18 0 0 0 -0.64,-0.76 2.5,2.5 0 0 0 -0.86,-0.4 3.75,3.75 0 0 0 -2.09,0.08 2.57,2.57 0 0 0 -1,0.56 2.7,2.7 0 0 0 -0.66,0.95 3.34,3.34 0 0 0 -0.24,1.32 3.52,3.52 0 0 0 0.21,1.25 2.6,2.6 0 0 0 1.59,1.56 4.39,4.39 0 0 0 2.09,0.13 3.48,3.48 0 0 0 0.69,-0.18 3,3 0 0 0 0.54,-0.24 1.78,1.78 0 0 0 0.39,-0.28 h 0.05 l -0.56,-1.11 -0.09,0.07 a 2.16,2.16 0 0 1 -0.66,0.37 3.14,3.14 0 0 1 -1.06,0.15 2.82,2.82 0 0 1 -0.6,-0.07 1.47,1.47 0 0 1 -0.49,-0.22 1,1 0 0 1 -0.34,-0.37 1,1 0 0 1 -0.13,-0.46 h 4 v -0.07 a 5,5 0 0 0 0.11,-1 2.6,2.6 0 0 0 -0.25,-1.28 z m -2.93,0.14 a 1.72,1.72 0 0 1 0.52,-0.08 1.1,1.1 0 0 1 0.85,0.3 1.07,1.07 0 0 1 0.28,0.72 h -2.53 a 1.09,1.09 0 0 1 0.14,-0.37 1,1 0 0 1 0.31,-0.35 1.35,1.35 0 0 1 0.43,-0.22 z"
       class="cls-15" />
    <path
       style="fill:#1d1d1b"
       inkscape:connector-curvature="0"
       id="path95"
       d="m 177.73,26.31 v -0.09 a 2.71,2.71 0 0 0 -0.4,-1.68 1.36,1.36 0 0 0 -1.12,-0.53 1.86,1.86 0 0 0 -1,0.26 3.28,3.28 0 0 0 -0.64,0.53 l -0.16,-0.66 h -2.65 v 1.4 h 1.37 v 2.91 h -1.37 v 1.41 h 5.39 v -1.41 h -2.4 v -2.24 a 2.08,2.08 0 0 1 0.43,-0.46 1,1 0 0 1 0.65,-0.2 0.34,0.34 0 0 1 0.3,0.14 1.09,1.09 0 0 1 0.1,0.53 v 0.09 z"
       class="cls-15" />
    <path
       style="fill:#1d1d1b"
       inkscape:connector-curvature="0"
       id="path97"
       d="m 191.67,25 a 1.59,1.59 0 0 0 -0.31,-0.61 1.07,1.07 0 0 0 -0.47,-0.32 1.89,1.89 0 0 0 -0.6,-0.09 1.68,1.68 0 0 0 -0.82,0.22 1.27,1.27 0 0 0 -0.47,0.45 1,1 0 0 0 -0.45,-0.48 1.79,1.79 0 0 0 -0.78,-0.19 1.6,1.6 0 0 0 -0.83,0.22 1.55,1.55 0 0 0 -0.46,0.42 l -0.14,-0.51 h -1.26 v 5.72 h 1.57 v -4.06 a 0.58,0.58 0 0 1 0.19,-0.25 0.55,0.55 0 0 1 0.51,-0.07 0.27,0.27 0 0 1 0.14,0.12 0.73,0.73 0 0 1 0.11,0.29 2.34,2.34 0 0 1 0.05,0.52 v 3.48 h 1.57 v -4.13 a 0.38,0.38 0 0 1 0.17,-0.23 0.51,0.51 0 0 1 0.31,-0.08 0.41,0.41 0 0 1 0.34,0.16 1,1 0 0 1 0.15,0.64 v 3.64 h 1.58 V 26 a 4.13,4.13 0 0 0 -0.1,-1 z"
       class="cls-15" />
    <path
       style="fill:#1d1d1b"
       inkscape:connector-curvature="0"
       id="path99"
       d="m 198.3,25.25 a 2.08,2.08 0 0 0 -0.64,-0.76 2.5,2.5 0 0 0 -0.86,-0.4 3.76,3.76 0 0 0 -2.09,0.08 2.73,2.73 0 0 0 -1,0.56 2.84,2.84 0 0 0 -0.66,0.95 3.86,3.86 0 0 0 0,2.57 2.55,2.55 0 0 0 0.61,0.95 2.67,2.67 0 0 0 1,0.61 4,4 0 0 0 1.3,0.2 4.07,4.07 0 0 0 0.79,-0.07 3.57,3.57 0 0 0 0.68,-0.18 3.13,3.13 0 0 0 0.55,-0.24 2,2 0 0 0 0.38,-0.28 h 0.06 l -0.56,-1.11 -0.09,0.07 a 2.22,2.22 0 0 1 -0.67,0.37 3.07,3.07 0 0 1 -1.05,0.15 2.92,2.92 0 0 1 -0.61,-0.07 1.56,1.56 0 0 1 -0.49,-0.22 1.1,1.1 0 0 1 -0.34,-0.37 1.19,1.19 0 0 1 -0.13,-0.46 h 4 v -0.07 a 5.77,5.77 0 0 0 0.11,-1 2.47,2.47 0 0 0 -0.29,-1.28 z m -2.92,0.14 a 1.7,1.7 0 0 1 0.51,-0.08 1,1 0 0 1 1.14,1 h -2.53 a 1.08,1.08 0 0 1 0.45,-0.72 1.25,1.25 0 0 1 0.43,-0.2 z"
       class="cls-15" />
    <path
       style="fill:#1d1d1b"
       inkscape:connector-curvature="0"
       id="path101"
       d="m 205,25.21 a 2,2 0 0 0 -0.43,-0.73 1.47,1.47 0 0 0 -0.65,-0.38 2.63,2.63 0 0 0 -0.8,-0.12 2.44,2.44 0 0 0 -1.86,0.81 l -0.14,-0.65 h -2.11 v 1.4 h 0.8 v 4.32 h 1.62 v -3.67 a 1.13,1.13 0 0 1 0.42,-0.53 1.19,1.19 0 0 1 0.7,-0.22 1,1 0 0 1 0.7,0.27 1.22,1.22 0 0 1 0.28,0.91 v 3.24 h 1.62 V 26.32 A 3.55,3.55 0 0 0 205,25.21 Z"
       class="cls-15" />
    <path
       style="fill:#1d1d1b"
       inkscape:connector-curvature="0"
       id="path103"
       d="m 211.46,27.77 -0.37,0.31 a 2.88,2.88 0 0 1 -0.34,0.23 2.31,2.31 0 0 1 -0.42,0.18 2.06,2.06 0 0 1 -0.52,0.06 1,1 0 0 1 -0.82,-0.35 1.81,1.81 0 0 1 -0.3,-1.17 v -1.49 h 2.9 v -1.4 h -2.9 v -1.7 l -1.62,0.46 v 1.24 H 206 v 1.4 h 1.1 V 27 a 3.33,3.33 0 0 0 0.65,2.26 2.47,2.47 0 0 0 1.93,0.72 3.51,3.51 0 0 0 0.71,-0.08 3.81,3.81 0 0 0 0.7,-0.22 3.34,3.34 0 0 0 0.62,-0.33 2,2 0 0 0 0.49,-0.42 l 0.05,-0.05 z"
       class="cls-15" />
    <path
       style="fill:#1d1d1b"
       inkscape:connector-curvature="0"
       id="path105"
       d="m 217.63,28.45 a 1.49,1.49 0 0 0 0,-0.21 4.92,4.92 0 0 1 0,-0.51 c 0,-0.21 0,-0.44 0,-0.7 a 9.25,9.25 0 0 0 0,-1 2.63,2.63 0 0 0 -0.11,-0.82 1.69,1.69 0 0 0 -0.38,-0.65 2,2 0 0 0 -0.69,-0.41 3,3 0 0 0 -1,-0.14 5.76,5.76 0 0 0 -1.4,0.14 7,7 0 0 0 -1,0.35 h -0.07 l 0.39,1.31 h 0.1 a 6.38,6.38 0 0 1 0.74,-0.29 3.33,3.33 0 0 1 1,-0.14 1.11,1.11 0 0 1 0.66,0.17 0.64,0.64 0 0 1 0.2,0.53 v 0.21 a 0.49,0.49 0 0 1 0,0.12 h -0.45 -0.43 a 4.72,4.72 0 0 0 -1,0.11 2.3,2.3 0 0 0 -0.81,0.33 1.57,1.57 0 0 0 -0.53,0.59 1.87,1.87 0 0 0 -0.18,0.85 1.61,1.61 0 0 0 0.51,1.24 2,2 0 0 0 1.37,0.46 2.13,2.13 0 0 0 1.15,-0.26 1.87,1.87 0 0 0 0.57,-0.5 l 0.14,0.68 h 2 v -1.46 z m -3.28,-0.7 a 0.55,0.55 0 0 1 0.23,-0.19 1.13,1.13 0 0 1 0.34,-0.11 1.87,1.87 0 0 1 0.4,0 h 0.46 0.25 V 28 a 1.11,1.11 0 0 1 -1.08,0.53 0.75,0.75 0 0 1 -0.53,-0.14 0.52,0.52 0 0 1 -0.15,-0.42 0.38,0.38 0 0 1 0.08,-0.22 z"
       class="cls-15" />
    <polygon
       style="fill:#1d1d1b"
       id="polygon107"
       points="178.85,26.96 180.71,28.82 180.02,29.51 180.46,29.95 184.17,26.24 184.17,25.37 183.13,26.4 180.82,24.1 178.16,26.76 178.16,27.67 "
       class="cls-15" />
    <path
       style="fill:#1d1d1b"
       inkscape:connector-curvature="0"
       id="path109"
       d="M 182,22.3 A 1.47,1.47 0 1 1 180.53,20.83 1.47,1.47 0 0 1 182,22.3 Z"
       class="cls-15" />
    <path
       style="fill:#1d1d1b"
       inkscape:connector-curvature="0"
       id="path111"
       d="m 171.78,33.36 h 0.15 0.24 0.53 a 1.77,1.77 0 0 1 0.73,0.13 1.06,1.06 0 0 1 0.45,0.35 1.34,1.34 0 0 1 0.23,0.53 2.73,2.73 0 0 1 0.07,0.66 2.59,2.59 0 0 1 -0.07,0.63 1.54,1.54 0 0 1 -0.23,0.56 1.33,1.33 0 0 1 -0.48,0.39 1.9,1.9 0 0 1 -0.78,0.15 h -0.43 -0.24 -0.17 z m 0.94,0.53 h -0.3 v 2.21 h 0.28 a 0.78,0.78 0 0 0 0.43,-0.1 0.62,0.62 0 0 0 0.24,-0.27 1.07,1.07 0 0 0 0.11,-0.37 c 0,-0.14 0,-0.27 0,-0.41 0,-0.14 0,-0.25 0,-0.37 a 1.36,1.36 0 0 0 -0.1,-0.36 0.71,0.71 0 0 0 -0.23,-0.26 0.78,0.78 0 0 0 -0.43,-0.07 z"
       class="cls-15" />
    <path
       style="fill:#1d1d1b"
       inkscape:connector-curvature="0"
       id="path113"
       d="m 174.74,34.46 a 3.21,3.21 0 0 1 0.44,-0.15 2.46,2.46 0 0 1 0.58,-0.06 1.25,1.25 0 0 1 0.42,0.06 0.78,0.78 0 0 1 0.28,0.17 0.61,0.61 0 0 1 0.15,0.26 1.16,1.16 0 0 1 0,0.34 c 0,0.16 0,0.29 0,0.41 0,0.12 0,0.21 0,0.3 V 36 a 0.6,0.6 0 0 1 0,0.12 H 177 v 0.52 h -0.79 l -0.07,-0.32 v 0 a 0.84,0.84 0 0 1 -0.27,0.26 1,1 0 0 1 -0.47,0.1 0.77,0.77 0 0 1 -0.55,-0.19 0.63,0.63 0 0 1 -0.21,-0.5 0.74,0.74 0 0 1 0.08,-0.34 0.51,0.51 0 0 1 0.21,-0.23 1,1 0 0 1 0.33,-0.14 1.91,1.91 0 0 1 0.43,0 H 176 c 0,0 0,-0.06 0,-0.09 V 35.1 a 0.3,0.3 0 0 0 -0.11,-0.26 0.49,0.49 0 0 0 -0.3,-0.07 1.44,1.44 0 0 0 -0.43,0.06 l -0.32,0.12 z m 0.8,1.73 a 0.63,0.63 0 0 0 0.34,-0.08 0.65,0.65 0 0 0 0.16,-0.18 v -0.28 h -0.14 -0.2 -0.17 -0.16 c -0.05,0 -0.09,0 -0.11,0.09 a 0.24,0.24 0 0 0 0,0.14 0.26,0.26 0 0 0 0.08,0.2 0.36,0.36 0 0 0 0.2,0.11 z"
       class="cls-15" />
    <path
       style="fill:#1d1d1b"
       inkscape:connector-curvature="0"
       id="path115"
       d="m 179,36 q 0,-0.09 -0.12,-0.15 a 1.51,1.51 0 0 0 -0.28,-0.1 l -0.37,-0.1 a 2.12,2.12 0 0 1 -0.38,-0.13 0.91,0.91 0 0 1 -0.28,-0.23 0.47,0.47 0 0 1 -0.12,-0.34 0.62,0.62 0 0 1 0.08,-0.31 0.73,0.73 0 0 1 0.21,-0.22 1,1 0 0 1 0.32,-0.14 1.77,1.77 0 0 1 0.41,-0.05 2.35,2.35 0 0 1 0.4,0 1.6,1.6 0 0 1 0.3,0.08 0.9,0.9 0 0 1 0.22,0.1 l 0.16,0.11 -0.26,0.42 -0.16,-0.09 -0.19,-0.08 a 0.83,0.83 0 0 0 -0.21,-0.06 h -0.22 a 0.73,0.73 0 0 0 -0.32,0.06 0.16,0.16 0 0 0 -0.12,0.16 c 0,0.05 0,0.1 0.11,0.13 a 1.39,1.39 0 0 0 0.29,0.1 l 0.37,0.1 a 1.47,1.47 0 0 1 0.37,0.13 0.86,0.86 0 0 1 0.28,0.21 0.49,0.49 0 0 1 0.12,0.34 0.67,0.67 0 0 1 -0.26,0.56 1.23,1.23 0 0 1 -0.78,0.21 1.78,1.78 0 0 1 -0.69,-0.12 1.56,1.56 0 0 1 -0.48,-0.28 l 0.28,-0.44 0.17,0.11 a 1.14,1.14 0 0 0 0.22,0.12 l 0.28,0.09 a 1.33,1.33 0 0 0 0.28,0 0.67,0.67 0 0 0 0.26,0 A 0.19,0.19 0 0 0 179,36 Z"
       class="cls-15" />
    <path
       style="fill:#1d1d1b"
       inkscape:connector-curvature="0"
       id="path117"
       d="m 181.35,35.57 h 0.52 V 36 36 l 0.24,0.08 a 1.12,1.12 0 0 0 0.27,0 0.69,0.69 0 0 0 0.41,-0.11 0.32,0.32 0 0 0 0.15,-0.28 0.31,0.31 0 0 0 -0.12,-0.26 1.07,1.07 0 0 0 -0.3,-0.17 l -0.38,-0.16 a 1.76,1.76 0 0 1 -0.39,-0.19 1,1 0 0 1 -0.3,-0.28 0.81,0.81 0 0 1 -0.12,-0.46 0.79,0.79 0 0 1 0.09,-0.38 0.87,0.87 0 0 1 0.23,-0.31 0.91,0.91 0 0 1 0.35,-0.19 1.34,1.34 0 0 1 0.46,-0.08 2.76,2.76 0 0 1 0.57,0.06 1.42,1.42 0 0 1 0.44,0.14 v 0.95 H 183 v -0.52 0 h -0.22 -0.24 a 0.58,0.58 0 0 0 -0.35,0.09 0.27,0.27 0 0 0 -0.13,0.24 0.32,0.32 0 0 0 0.12,0.26 2.45,2.45 0 0 0 0.29,0.18 l 0.39,0.16 a 1.76,1.76 0 0 1 0.39,0.19 1.14,1.14 0 0 1 0.29,0.29 0.76,0.76 0 0 1 0.12,0.44 1,1 0 0 1 -0.09,0.44 0.76,0.76 0 0 1 -0.27,0.32 1,1 0 0 1 -0.4,0.19 1.53,1.53 0 0 1 -0.49,0.07 1.87,1.87 0 0 1 -0.34,0 l -0.28,-0.07 -0.23,-0.09 -0.16,-0.08 z"
       class="cls-15" />
    <path
       style="fill:#1d1d1b"
       inkscape:connector-curvature="0"
       id="path119"
       d="m 186.39,36.43 a 1.35,1.35 0 0 1 -0.45,0.22 2.35,2.35 0 0 1 -0.54,0.07 1.53,1.53 0 0 1 -0.54,-0.09 1,1 0 0 1 -0.65,-0.65 1.35,1.35 0 0 1 -0.08,-0.5 1.44,1.44 0 0 1 0.09,-0.53 1.21,1.21 0 0 1 0.28,-0.39 1.1,1.1 0 0 1 0.42,-0.24 1.46,1.46 0 0 1 0.52,-0.09 2.53,2.53 0 0 1 0.49,0.06 l 0.36,0.12 v 0.83 h -0.52 v -0.43 h -0.29 a 0.84,0.84 0 0 0 -0.27,0 0.57,0.57 0 0 0 -0.23,0.12 0.73,0.73 0 0 0 -0.16,0.22 0.76,0.76 0 0 0 -0.06,0.32 0.59,0.59 0 0 0 0.05,0.27 0.55,0.55 0 0 0 0.19,0.26 0.55,0.55 0 0 0 0.24,0.15 0.73,0.73 0 0 0 0.3,0.06 1.08,1.08 0 0 0 0.44,-0.08 L 186.24,36 Z"
       class="cls-15" />
    <path
       style="fill:#1d1d1b"
       inkscape:connector-curvature="0"
       id="path121"
       d="m 186.88,36.13 h 0.83 v -1.31 h -0.83 V 34.3 h 1.44 v 1.83 h 0.87 v 0.52 h -2.31 z m 0.71,-2.47 a 0.34,0.34 0 0 1 0.11,-0.25 0.4,0.4 0 0 1 0.3,-0.1 0.47,0.47 0 0 1 0.32,0.1 0.32,0.32 0 0 1 0,0.5 0.53,0.53 0 0 1 -0.32,0.09 0.45,0.45 0 0 1 -0.3,-0.09 0.34,0.34 0 0 1 -0.11,-0.25 z"
       class="cls-15" />
    <path
       style="fill:#1d1d1b"
       inkscape:connector-curvature="0"
       id="path123"
       d="m 191.89,36.4 a 0.5,0.5 0 0 1 -0.16,0.11 l -0.22,0.11 -0.29,0.07 a 1.69,1.69 0 0 1 -0.33,0 1.53,1.53 0 0 1 -0.54,-0.09 1.07,1.07 0 0 1 -0.4,-0.24 1.14,1.14 0 0 1 -0.25,-0.39 1.46,1.46 0 0 1 -0.09,-0.52 1.22,1.22 0 0 1 0.37,-0.94 1.23,1.23 0 0 1 0.4,-0.23 1.64,1.64 0 0 1 0.5,-0.08 1.57,1.57 0 0 1 0.37,0.05 1,1 0 0 1 0.35,0.16 0.79,0.79 0 0 1 0.26,0.31 1,1 0 0 1 0.1,0.49 2.32,2.32 0 0 1 0,0.44 h -1.7 a 0.61,0.61 0 0 0 0.07,0.25 0.5,0.5 0 0 0 0.15,0.17 0.62,0.62 0 0 0 0.22,0.1 h 0.27 a 1.2,1.2 0 0 0 0.46,-0.07 0.86,0.86 0 0 0 0.3,-0.16 z m -1,-1.68 a 0.85,0.85 0 0 0 -0.23,0 0.44,0.44 0 0 0 -0.19,0.1 0.46,0.46 0 0 0 -0.15,0.16 0.47,0.47 0 0 0 -0.06,0.21 h 1.15 a 0.55,0.55 0 0 0 -0.12,-0.37 0.54,0.54 0 0 0 -0.42,-0.1 z"
       class="cls-15" />
    <path
       style="fill:#1d1d1b"
       inkscape:connector-curvature="0"
       id="path125"
       d="M 192.21,34.3 H 193 l 0.07,0.31 v 0 a 0.9,0.9 0 0 1 0.31,-0.26 1,1 0 0 1 0.49,-0.12 1.13,1.13 0 0 1 0.32,0.05 0.67,0.67 0 0 1 0.27,0.16 0.89,0.89 0 0 1 0.17,0.29 1.56,1.56 0 0 1 0.06,0.46 v 1.46 h -0.61 v -1.33 a 0.57,0.57 0 0 0 -0.13,-0.42 0.48,0.48 0 0 0 -0.33,-0.12 0.55,0.55 0 0 0 -0.32,0.1 0.47,0.47 0 0 0 -0.19,0.25 v 1.52 h -0.61 v -1.83 h -0.34 z"
       class="cls-15" />
    <path
       style="fill:#1d1d1b"
       inkscape:connector-curvature="0"
       id="path127"
       d="m 197.5,36.43 a 1.35,1.35 0 0 1 -0.45,0.22 2.51,2.51 0 0 1 -0.55,0.07 1.53,1.53 0 0 1 -0.54,-0.09 1,1 0 0 1 -0.65,-0.65 1.59,1.59 0 0 1 -0.08,-0.5 1.25,1.25 0 0 1 0.1,-0.53 1.19,1.19 0 0 1 0.27,-0.39 1.1,1.1 0 0 1 0.42,-0.24 1.46,1.46 0 0 1 0.52,-0.09 2.63,2.63 0 0 1 0.5,0.06 l 0.35,0.12 v 0.83 h -0.52 v -0.43 a 1.43,1.43 0 0 0 -0.29,0 0.78,0.78 0 0 0 -0.26,0 0.51,0.51 0 0 0 -0.23,0.12 0.75,0.75 0 0 0 -0.18,0.81 0.71,0.71 0 0 0 0.15,0.22 0.51,0.51 0 0 0 0.23,0.15 0.78,0.78 0 0 0 0.31,0.06 1.12,1.12 0 0 0 0.44,-0.08 1.38,1.38 0 0 0 0.25,-0.13 z"
       class="cls-15" />
    <path
       style="fill:#1d1d1b"
       inkscape:connector-curvature="0"
       id="path129"
       d="m 200.22,36.4 a 0.64,0.64 0 0 1 -0.16,0.11 1.67,1.67 0 0 1 -0.23,0.11 l -0.28,0.07 a 1.69,1.69 0 0 1 -0.33,0 1.53,1.53 0 0 1 -0.54,-0.09 1.07,1.07 0 0 1 -0.4,-0.24 A 1.14,1.14 0 0 1 198,36 a 1.46,1.46 0 0 1 -0.09,-0.52 1.35,1.35 0 0 1 0.1,-0.55 1.19,1.19 0 0 1 0.27,-0.39 1.13,1.13 0 0 1 0.4,-0.23 1.51,1.51 0 0 1 0.87,0 1.11,1.11 0 0 1 0.35,0.16 0.88,0.88 0 0 1 0.26,0.31 1,1 0 0 1 0.1,0.49 2.32,2.32 0 0 1 0,0.44 h -1.7 a 0.49,0.49 0 0 0 0.07,0.25 0.41,0.41 0 0 0 0.15,0.17 0.62,0.62 0 0 0 0.22,0.1 1.12,1.12 0 0 0 0.27,0 1.2,1.2 0 0 0 0.46,-0.07 A 0.86,0.86 0 0 0 200,36 Z m -1,-1.68 a 0.85,0.85 0 0 0 -0.23,0 0.44,0.44 0 0 0 -0.19,0.1 0.46,0.46 0 0 0 -0.15,0.16 0.37,0.37 0 0 0 -0.06,0.21 h 1.15 a 0.51,0.51 0 0 0 -0.13,-0.37 0.5,0.5 0 0 0 -0.41,-0.1 z"
       class="cls-15" />
    <path
       style="fill:#1d1d1b"
       inkscape:connector-curvature="0"
       id="path131"
       d="m 203.93,35.55 h 0.52 v 0.94 a 1.21,1.21 0 0 1 -0.38,0.17 2,2 0 0 1 -0.48,0.06 1.92,1.92 0 0 1 -0.59,-0.09 1.18,1.18 0 0 1 -0.49,-0.3 1.35,1.35 0 0 1 -0.34,-0.53 2.29,2.29 0 0 1 -0.17,-0.8 2,2 0 0 1 0.15,-0.82 1.44,1.44 0 0 1 0.37,-0.52 1.26,1.26 0 0 1 0.5,-0.29 1.76,1.76 0 0 1 0.55,-0.09 2.12,2.12 0 0 1 0.47,0.05 1.82,1.82 0 0 1 0.33,0.11 v 1 h -0.52 V 33.9 h -0.3 a 0.74,0.74 0 0 0 -0.34,0.07 0.63,0.63 0 0 0 -0.28,0.21 0.89,0.89 0 0 0 -0.18,0.35 1.53,1.53 0 0 0 -0.07,0.51 1.65,1.65 0 0 0 0.06,0.46 1,1 0 0 0 0.18,0.36 0.73,0.73 0 0 0 0.29,0.23 0.79,0.79 0 0 0 0.38,0.08 h 0.3 z"
       class="cls-15" />
    <path
       style="fill:#1d1d1b"
       inkscape:connector-curvature="0"
       id="path133"
       d="m 207.13,36.4 a 0.58,0.58 0 0 1 -0.15,0.11 l -0.23,0.11 -0.28,0.07 a 1.84,1.84 0 0 1 -0.33,0 1.53,1.53 0 0 1 -0.54,-0.09 1.07,1.07 0 0 1 -0.4,-0.24 1.16,1.16 0 0 1 -0.26,-0.39 1.46,1.46 0 0 1 -0.08,-0.52 1.35,1.35 0 0 1 0.1,-0.55 1.06,1.06 0 0 1 0.67,-0.62 1.59,1.59 0 0 1 0.5,-0.08 1.64,1.64 0 0 1 0.37,0.05 1.23,1.23 0 0 1 0.35,0.16 1,1 0 0 1 0.26,0.31 1,1 0 0 1 0.1,0.49 2.37,2.37 0 0 1 -0.05,0.44 h -1.69 a 0.49,0.49 0 0 0 0.06,0.25 0.44,0.44 0 0 0 0.16,0.17 0.55,0.55 0 0 0 0.22,0.1 1.09,1.09 0 0 0 0.26,0 1.26,1.26 0 0 0 0.47,-0.07 0.73,0.73 0 0 0 0.29,-0.16 z m -1,-1.68 a 0.85,0.85 0 0 0 -0.23,0 0.54,0.54 0 0 0 -0.2,0.1 0.44,0.44 0 0 0 -0.14,0.16 0.48,0.48 0 0 0 -0.07,0.21 h 1.16 a 0.51,0.51 0 0 0 -0.13,-0.37 0.53,0.53 0 0 0 -0.4,-0.1 z"
       class="cls-15" />
    <path
       style="fill:#1d1d1b"
       inkscape:connector-curvature="0"
       id="path135"
       d="m 207.45,34.3 h 0.83 l 0.07,0.31 v 0 a 0.81,0.81 0 0 1 0.31,-0.26 0.9,0.9 0 0 1 0.48,-0.12 1.14,1.14 0 0 1 0.33,0.05 0.63,0.63 0 0 1 0.26,0.16 0.74,0.74 0 0 1 0.17,0.29 1.53,1.53 0 0 1 0.07,0.46 v 1.46 h -0.62 v -1.33 a 0.57,0.57 0 0 0 -0.13,-0.42 0.44,0.44 0 0 0 -0.32,-0.12 0.53,0.53 0 0 0 -0.32,0.1 0.49,0.49 0 0 0 -0.2,0.25 v 1.52 h -0.61 v -1.83 h -0.34 z"
       class="cls-15" />
    <path
       style="fill:#1d1d1b"
       inkscape:connector-curvature="0"
       id="path137"
       d="m 210.72,34.82 h -0.47 V 34.3 h 0.47 v -0.54 l 0.61,-0.17 v 0.71 h 1.23 v 0.52 h -1.23 v 0.67 a 0.84,0.84 0 0 0 0.14,0.53 0.5,0.5 0 0 0 0.38,0.16 0.85,0.85 0 0 0 0.23,0 l 0.19,-0.08 0.15,-0.1 0.12,-0.11 0.28,0.43 a 0.85,0.85 0 0 1 -0.2,0.17 l -0.26,0.13 -0.29,0.1 a 1.43,1.43 0 0 1 -0.29,0 1,1 0 0 1 -0.79,-0.3 1.32,1.32 0 0 1 -0.27,-0.93 z"
       class="cls-15" />
    <path
       style="fill:#1d1d1b"
       inkscape:connector-curvature="0"
       id="path139"
       d="m 215.46,36.4 a 0.5,0.5 0 0 1 -0.16,0.11 l -0.22,0.11 -0.29,0.07 a 1.66,1.66 0 0 1 -0.32,0 1.45,1.45 0 0 1 -0.54,-0.09 1.11,1.11 0 0 1 -0.41,-0.24 1.14,1.14 0 0 1 -0.25,-0.39 1.46,1.46 0 0 1 -0.08,-0.52 1.55,1.55 0 0 1 0.09,-0.55 1.36,1.36 0 0 1 0.27,-0.39 1.18,1.18 0 0 1 0.41,-0.23 1.59,1.59 0 0 1 0.5,-0.08 1.72,1.72 0 0 1 0.37,0.05 1.23,1.23 0 0 1 0.35,0.16 1,1 0 0 1 0.26,0.31 1.15,1.15 0 0 1 0.1,0.49 2.37,2.37 0 0 1 0,0.44 h -1.74 a 0.49,0.49 0 0 0 0.06,0.25 0.44,0.44 0 0 0 0.16,0.17 0.5,0.5 0 0 0 0.22,0.1 1.09,1.09 0 0 0 0.26,0 1.29,1.29 0 0 0 0.47,-0.07 0.81,0.81 0 0 0 0.29,-0.16 z m -1,-1.68 a 0.79,0.79 0 0 0 -0.23,0 0.47,0.47 0 0 0 -0.2,0.1 0.44,0.44 0 0 0 -0.14,0.16 0.48,0.48 0 0 0 -0.07,0.21 H 215 a 0.55,0.55 0 0 0 -0.13,-0.37 0.53,0.53 0 0 0 -0.42,-0.1 z"
       class="cls-15" />
    <path
       style="fill:#1d1d1b"
       inkscape:connector-curvature="0"
       id="path141"
       d="m 215.91,36.13 h 0.58 v -1.31 h -0.58 V 34.3 H 217 l 0.07,0.31 v 0 a 1.48,1.48 0 0 1 0.3,-0.26 0.71,0.71 0 0 1 0.39,-0.1 0.54,0.54 0 0 1 0.45,0.21 1.09,1.09 0 0 1 0.16,0.69 h -0.55 a 0.52,0.52 0 0 0 -0.05,-0.25 0.17,0.17 0 0 0 -0.16,-0.08 0.44,0.44 0 0 0 -0.3,0.1 0.76,0.76 0 0 0 -0.19,0.21 v 1 h 1 v 0.52 h -2.22 z"
       class="cls-15" />
    <path
       style="fill:url(#linear-gradient-4)"
       inkscape:connector-curvature="0"
       id="path143"
       d="m 123.5,27.21 5.4,-5.08 c 0.23,-0.2 0.43,-0.44 0.69,-0.48 a 1.77,1.77 0 0 1 0.88,0.34 c 0.09,0.06 2.82,1.76 3.32,2.06 l 4.21,2.57 a 2.63,2.63 0 0 0 2,-2.1 1.55,1.55 0 0 0 -0.8,-1.49 l -0.66,-0.41 v 0 c 0,0 -4.62,-2.73 -5.93,-3.49 a 6.05,6.05 0 0 0 -2.9,-0.78 5.56,5.56 0 0 0 -3.24,1.33 v 0 l -6.35,4.82 1,1.24 a 4.23,4.23 0 0 0 1.61,1.26 4.39,4.39 0 0 0 0.77,0.21 z"
       class="cls-16" />
    <path
       style="fill:url(#linearGradient163)"
       inkscape:connector-curvature="0"
       id="path145"
       d="m 126.61,24.28 v 0"
       class="cls-17" />
    <path
       style="fill:url(#linear-gradient-6)"
       inkscape:connector-curvature="0"
       id="path147"
       d="m 123.5,27.21 v 0 l 3.11,-2.93 a 0.76,0.76 0 0 1 -0.36,-0.05 1.23,1.23 0 0 1 -0.35,-0.29 l -2,-2.36 -3.85,2.92 -1.92,1.5 c 0,0 -1.09,0.71 -1.06,1.68 a 2.24,2.24 0 0 0 1.41,1.77 l 8.11,3.47 a 9.58,9.58 0 0 0 3,0.67 9.37,9.37 0 0 0 2.77,-0.59 l 6.55,-2.24 c 0.34,-0.11 0.86,-0.44 0.86,-0.84 0,-0.4 -0.41,-0.72 -0.88,-0.93 a 4.21,4.21 0 0 0 -2.26,-0.31 68.08,68.08 0 0 0 -6.87,2 l -6.25,-2.72 a 0.34,0.34 0 0 1 -0.24,-0.42 c 0.03,-0.17 0.23,-0.33 0.23,-0.33 z"
       class="cls-18" />
    <path
       style="fill:#e6007e"
       inkscape:connector-curvature="0"
       id="path149"
       d="m 138,26.62 a 2.63,2.63 0 0 0 2,-2.1 1.55,1.55 0 0 0 -0.8,-1.49 l -0.66,-0.41 -4.68,1.43 -7.18,0.23 v 0 a 0.76,0.76 0 0 1 -0.36,-0.05 1.23,1.23 0 0 1 -0.35,-0.29 l -2,-2.36 -3.85,2.92 1,1.24 a 4.23,4.23 0 0 0 1.61,1.26 4.39,4.39 0 0 0 0.77,0.19 v 0 a 18.41,18.41 0 0 0 1.87,0.06 C 127.35,27.32 137,26.91 138,26.62 Z"
       class="cls-19" />
    <path
       style="fill:url(#linear-gradient-7)"
       inkscape:connector-curvature="0"
       id="path151"
       d="m 126.61,24.28 a 0.8,0.8 0 0 1 -0.36,-0.05 1.23,1.23 0 0 1 -0.35,-0.29 l -2,-2.39 -0.8,-0.94 a 0.49,0.49 0 0 1 -0.11,-0.33 0.58,0.58 0 0 1 0.27,-0.49 L 128,16.73 a 1.74,1.74 0 0 1 0.48,-0.23 1.55,1.55 0 0 1 0.49,0 l 4.36,0.7 a 6.44,6.44 0 0 0 2.49,-0.14 2.3,2.3 0 0 0 1.42,-0.77 c 0.27,-0.41 -0.15,-0.76 -0.29,-0.86 a 4.22,4.22 0 0 0 -1.9,-0.61 l -6.74,-1.08 a 6.27,6.27 0 0 0 -2.88,0.15 5.12,5.12 0 0 0 -1.4,0.62 l -6.24,4.17 a 1.69,1.69 0 0 0 -0.7,1.19 1.72,1.72 0 0 0 0.41,1.3 l 0.06,0.07 3.44,4.5 a 4.23,4.23 0 0 0 1.73,1.26 4.39,4.39 0 0 0 0.77,0.19 z"
       class="cls-20" />
  </g>
  <text
     xml:space="preserve"
     style="font-style:normal;font-weight:normal;font-size:14px;line-height:1.25;font-family:sans-serif;letter-spacing:0px;word-spacing:0px;fill:#ffffff;fill-opacity:1;stroke:none;"
     x="22.88653"
     y="108.78947"
     id="text1057"><tspan
       sodipodi:role="line"
       id="tspan1055"
       x="22.88653"
       y="108.78947"
       style="font-style:normal;font-variant:normal;font-weight:bold;font-stretch:normal;font-family:'DIN OT';-inkscape-font-specification:'DIN OT Bold';fill:#ffffff;">MAKER SPACE</tspan></text>
  <text
     xml:space="preserve"
     style="font-style:normal;font-weight:normal;font-size:14px;line-height:1.25;font-family:sans-serif;letter-spacing:0px;word-spacing:0px;fill:#ffffff;fill-opacity:1;stroke:none;"
     x="22.942478"
     y="125.59467"
     id="user_name_front"
     inkscape:label="#text1061"><tspan
       sodipodi:role="line"
       id="tspan1059"
       x="22.942478"
       y="125.59467"
       style="font-style:normal;font-variant:normal;font-weight:normal;font-stretch:normal;font-family:'DIN OT';-inkscape-font-specification:'DIN OT';fill:#ffffff;">[[Vorname]] [[Nachname]]</tspan></text>
</svg>
